<?xml version="1.0" encoding="UTF-8"?>
<svg id="_レイヤー_1" data-name="レイヤー 1" xmlns="http://www.w3.org/2000/svg" viewBox="0 0 458.28 292.88">
  <defs>
    <style>
      .cls-1 {
        fill: #e4bfc5;
      }

      .cls-2 {
        fill: #fef3e8;
      }

      .cls-3 {
        fill: #a25a71;
      }

      .cls-4 {
        fill: #d98d95;
      }

      .cls-5 {
        fill: #3e5d7e;
      }
    </style>
  </defs>
  <g id="_表" data-name=" 表">
    <g id="_ロゴ2" data-name=" ロゴ2">
      <path class="cls-2" d="M223.46,73.91C96.94,89.63-3.06,127.59,.07,158.72c3.14,31.14,108.25,43.65,234.74,27.94,126.52-15.71,226.53-53.67,223.39-84.81-3.14-31.14-108.25-43.65-234.74-27.94Zm8.47,104.44c-89.14,11.06-185.59,6.27-188.67-24.41-3.1-30.68,89.98-59.01,179.16-70.07,89.18-11.06,185.56-6.27,188.67,24.41,3.1,30.68-89.98,59.01-179.16,70.07Zm-6.95-89.3c-92.51,11.48-165.64,39.25-163.35,62.02,2.3,22.76,79.15,31.91,171.66,20.43,92.51-11.48,165.64-39.25,163.35-62.02-2.3-22.76-79.15-31.91-171.66-20.43Zm6.21,76.37c-65.22,8.08-135.74,4.59-137.97-17.85-2.26-22.44,65.8-43.13,131.01-51.25,65.22-8.08,135.7-4.59,137.97,17.85,2.26,22.44-65.8,43.17-131.01,51.25Z"/>
      <g>
        <path class="cls-1" d="M352.28,123.13c0,68-55.13,123.13-123.16,123.13s-123.13-55.13-123.13-123.13S161.13,0,229.12,0s123.16,55.13,123.16,123.13h0Z"/>
        <g>
          <path class="cls-4" d="M327.67,49.24c-40,56.29-114.2,144.76-191.19,154.91,22.57,25.77,55.71,42.1,92.67,42.1,68,0,123.16-55.13,123.16-123.13,0-27.71-9.15-53.29-24.61-73.85l-.03-.03Z"/>
          <path class="cls-3" d="M352.22,120.38c-40.55,49.05-108.9,109.58-195.33,102.43,20.31,14.74,45.27,23.44,72.27,23.44,68,0,123.16-55.13,123.16-123.13,0-.91-.06-1.81-.06-2.75h-.03Z"/>
        </g>
      </g>
      <path class="cls-5" d="M319.59,137.22c.26-1.26,2.04-10.61,0-14.03-.26-4.88-7.05-13.94-8.96-16.36-.13-.19-3.69-7.47-3.88-7.5,0,0,10.8-13.84,9.99-18.07-.16-.87,.55-4.49-.78-8.21-.1-1.81-5.92-1.78-7.21-3.46-.78-.58-3.94-8.24-10.7-11.06-4.95-2.04-4.3-2.68-17.62-2.26-4.43-5.59-6.05-11.9-10.9-17.59-4.4,.91-5.79,24.09-4.33,31.56-3.65,25.51,10.35,30.04,10.35,30.04-.42-.06-.84,.16-1,.58-7.7,17.88-12.16,18.75-16.1,20.69-4.04,1.97-27.74,13.32-29.88,15.04-2.13,1.68-15.71,9.86-13.48,32.3,0,.19-.13,.39-.1,.55-2.55,19.01-43.46,14.65-51.67,3.36-8.7-8.41-12.42-25.51,3.3-51.35,.36-.55,.06-1.33-.52-1.49l-1.71-.49c-.58-.16-.87-.84-.58-1.39,1.13-2.33,4.14-7.79,8.28-10.22,.68-.39,.61-1.46-.1-1.75-.74-.32-.78-1.42-.06-1.78l3.23-1.65c.87-.42,.61-1.78-.32-1.88-6.4-.55-27.16,3.39-40.19,26.19-.26,.45-.78,.61-1.2,.39-.68-.36-1.58-1.16-1.84-2.94-.13-.91-1.33-1.1-1.75-.32-2.07,4.01-2.13,12.84-2.07,16.3,0,.68-.61,1.16-1.23,.94l-1.23-.45c-.61-.23-1.26,.26-1.23,.94,.16,5.66,7.57,34.14,28.94,46.79,15.46,9.12,39.96,11.93,65.7,4.59,.42-.13,.84,.06,1.07,.45l1.26,2.43c.16,.29,.45,.49,.78,.52,5.66,.13,55.26,1.2,56.13,0,.94-1.29,2.04-5.56,1.23-6.4s-11.32-7.37-11.83-8.21,7.79,.81,7.05-12.93c0-.39,.19-.81,.55-.97,6.56-3.2,11.7-3.27,13.39-3.17,.36,0,.65,.26,.81,.58l1.33,3.23s.06,.26,.06,.42l-.26,11.12s-.26,2.85,1.07,4.82c1.36,1.97,5.66,7.37,5.66,7.37,0,0,.26,1.71,2.43,1.71s11.58,.29,11.58,.29c0,0,2.68,.29,2.68-1.42v-5.4s0-2.26-1.88-3.1c-1.62-.74-6.37-4.79-7.73-5.92-.23-.19-.36-.49-.32-.81,.1-2.49,.65-13.64,1.58-15.68,.91-1.91,3.52-7.21,3.85-9.86,.06-.52,.48-.87,.97-.81,2.46,.26,5.11-3.49,5.59-4.24,.06-.1,.1-.16,.13-.26,.19-.74,1.16-4.27,1.33-6.98,.03-.71,.78-1.16,1.39-.78,1.16,.68,1.07-1.07,1.03-1.58v-.29l-.06-.13Z"/>
      <path class="cls-2" d="M458.2,101.85c-2-19.76-45.07-32.01-108.61-34.31,1.36,4.49,3.1,8.96,4.49,13.45,32.92,3.94,55.52,12.71,57,27.29,3.1,30.68-89.98,59.01-179.16,70.07-89.14,11.06-185.59,6.27-188.67-24.41-1.55-15.36,20.95-30.1,55-42.39,.06-4.36,.61-8.67,1.16-13C37.77,116.4-1.93,138.94,.07,158.76c3.14,31.14,108.25,43.65,234.74,27.94,126.52-15.71,226.53-53.67,223.39-84.81v-.03Z"/>
      <path class="cls-2" d="M355.87,88.04c.06,.29,.13,.58,.16,.84,.91,5.66,1.2,10.96,.61,16.33,3.27,2.55,5.21,5.53,5.56,8.96,2.26,22.44-65.8,43.17-131.01,51.25-65.22,8.08-135.74,4.59-137.97-17.85-.52-5.24,2.85-10.41,9.05-15.33-1.65-4.11-2.88-8.37-3.52-12.77-24.09,10.28-38.15,21.44-37.12,31.62,2.3,22.76,79.15,31.91,171.66,20.43,92.51-11.48,165.64-39.25,163.35-62.02-1-9.96-16.23-17.3-40.8-21.47h.03Z"/>
    </g>
  </g>
</svg>